<svg width="30" height="24" viewBox="0 0 30 24" fill="none" xmlns="http://www.w3.org/2000/svg">
<path id="Vector" d="M8.30537 1.16859C11.3321 1.16859 14.3532 3.07078 14.9963 5.28422C15.4707 3.17672 18.5635 1.18969 21.6788 1.18969C24.1022 1.18969 26.5388 2.39156 27.7679 5.67422C30.789 13.7456 16.0491 21.4959 14.9958 22.455C13.9426 21.248 -0.796348 13.8844 2.22662 5.67891C3.436 2.39625 5.87256 1.16812 8.30537 1.16859ZM8.30537 0.28125H8.30443C5.11037 0.28125 2.59459 2.13609 1.40303 5.36953C-1.3101 12.7336 8.54115 19.1878 12.7468 21.9427C13.4241 22.3866 14.1915 22.8895 14.3424 23.0461L14.9302 23.7188L15.5846 23.1131C15.6933 23.0175 16.1963 22.6955 16.6829 22.3842C20.716 19.8023 31.4288 12.9431 28.5896 5.36016C27.3868 2.14547 24.8677 0.301875 21.6793 0.301875C18.9868 0.301875 16.3233 1.59703 14.9705 3.37406C13.5727 1.57031 10.943 0.281719 8.30537 0.28125Z" fill="black"/>
</svg>
